<?xml version="1.0" encoding="utf-8" ?>
<svg baseProfile="tiny" height="1024" version="1.2" width="1024" xmlns="http://www.w3.org/2000/svg" xmlns:ev="http://www.w3.org/2001/xml-events" xmlns:xlink="http://www.w3.org/1999/xlink"><defs /><rect fill="white" height="1024" width="1024" x="0" y="0" /><path d="M 25,878 Z" fill="#0057b8" /><path d="M 335,785 Z" fill="#0057b8" /><path d="M 480,747 Z" fill="#0057b8" /><path d="M 499,746 Z" fill="#0057b8" /><path d="M 422,743 Z" fill="#0057b8" /><path d="M 429,741 Z" fill="#0057b8" /><path d="M 537,740 Z" fill="#0057b8" /><path d="M 421,739 Z" fill="#0057b8" /><path d="M 562,735 Z" fill="#0057b8" /><path d="M 404,734 Z" fill="#0057b8" /><path d="M 400,732 Z" fill="#0057b8" /><path d="M 565,731 Z" fill="#0057b8" /><path d="M 570,729 Z" fill="#0057b8" /><path d="M 580,725 Z" fill="#0057b8" /><path d="M 596,719 Z" fill="#0057b8" /><path d="M 596,717 Z" fill="#0057b8" /><path d="M 365,716 Z" fill="#0057b8" /><path d="M 345,709 Z" fill="#0057b8" /><path d="M 344,705 Z" fill="#0057b8" /><path d="M 253,702 Z" fill="#0057b8" /><path d="M 216,696 Z" fill="#0057b8" /><path d="M 631,693 Z" fill="#0057b8" /><path d="M 655,673 Z" fill="#0057b8" /><path d="M 655,671 Z" fill="#0057b8" /><path d="M 663,663 Z" fill="#0057b8" /><path d="M 665,662 Z" fill="#0057b8" /><path d="M 666,659 Z" fill="#0057b8" /><path d="M 702,603 Z" fill="#0057b8" /><path d="M 501,601 Z" fill="#0057b8" /><path d="M 471,601 Z" fill="#0057b8" /><path d="M 506,600 Z" fill="#0057b8" /><path d="M 477,600 Z" fill="#0057b8" /><path d="M 454,598 L 455,598 Z" fill="#0057b8" /><path d="M 451,597 Z" fill="#0057b8" /><path d="M 705,596 Z" fill="#0057b8" /><path d="M 430,588 Z" fill="#0057b8" /><path d="M 540,587 Z" fill="#0057b8" /><path d="M 428,587 Z" fill="#0057b8" /><path d="M 710,582 Z" fill="#0057b8" /><path d="M 713,574 Z" fill="#0057b8" /><path d="M 406,570 Z" fill="#0057b8" /><path d="M 564,568 Z" fill="#0057b8" /><path d="M 407,568 Z" fill="#0057b8" /><path d="M 716,562 Z" fill="#0057b8" /><path d="M 717,560 L 718,561 Z" fill="#0057b8" /><path d="M 718,554 Z" fill="#0057b8" /><path d="M 719,549 Z" fill="#0057b8" /><path d="M 576,544 Z" fill="#0057b8" /><path d="M 385,543 Z" fill="#0057b8" /><path d="M 722,532 Z" fill="#0057b8" /><path d="M 588,530 L 587,531 Z" fill="#0057b8" /><path d="M 380,529 L 379,530 Z" fill="#0057b8" /><path d="M 722,527 Z" fill="#0057b8" /><path d="M 376,518 L 376,519 Z" fill="#0057b8" /><path d="M 592,517 Z" fill="#0057b8" /><path d="M 592,513 Z" fill="#0057b8" /><path d="M 592,510 Z" fill="#0057b8" /><path d="M 373,509 Z" fill="#0057b8" /><path d="M 372,507 Z" fill="#0057b8" /><path d="M 594,505 Z" fill="#0057b8" /><path d="M 594,503 Z" fill="#0057b8" /><path d="M 594,499 Z" fill="#0057b8" /><path d="M 216,494 Z" fill="#0057b8" /><path d="M 727,489 Z" fill="#0057b8" /><path d="M 355,488 Z" fill="#0057b8" /><path d="M 351,488 Z" fill="#0057b8" /><path d="M 724,421 Z" fill="#0057b8" /><path d="M 592,419 Z" fill="#0057b8" /><path d="M 735,407 Z" fill="#0057b8" /><path d="M 584,399 Z" fill="#0057b8" /><path d="M 215,396 Z" fill="#0057b8" /><path d="M 743,392 Z" fill="#0057b8" /><path d="M 743,390 Z" fill="#0057b8" /><path d="M 565,374 Z" fill="#0057b8" /><path d="M 757,369 Z" fill="#0057b8" /><path d="M 763,353 Z" fill="#0057b8" /><path d="M 764,348 L 765,348 Z" fill="#0057b8" /><path d="M 554,344 Z" fill="#0057b8" /><path d="M 767,327 Z" fill="#0057b8" /><path d="M 767,304 Z" fill="#0057b8" /><path d="M 767,300 Z" fill="#0057b8" /><path d="M 553,300 L 553,301 Z" fill="#0057b8" /><path d="M 766,297 Z" fill="#0057b8" /><path d="M 552,295 Z" fill="#0057b8" /><path d="M 765,294 Z" fill="#0057b8" /><path d="M 764,290 L 764,291 Z" fill="#0057b8" /><path d="M 557,283 Z" fill="#0057b8" /><path d="M 757,271 Z" fill="#0057b8" /><path d="M 564,268 Z" fill="#0057b8" /><path d="M 569,256 L 568,257 Z" fill="#0057b8" /><path d="M 746,253 Z" fill="#0057b8" /><path d="M 577,248 Z" fill="#0057b8" /><path d="M 721,229 Z" fill="#0057b8" /><path d="M 715,225 Z" fill="#0057b8" /><path d="M 605,224 Z" fill="#0057b8" /><path d="M 708,221 Z" fill="#0057b8" /><path d="M 703,219 Z" fill="#0057b8" /><path d="M 616,219 L 617,219 Z" fill="#0057b8" /><path d="M 701,218 Z" fill="#0057b8" /><path d="M 621,217 Z" fill="#0057b8" /><path d="M 624,216 Z" fill="#0057b8" /><path d="M 618,216 Z" fill="#0057b8" /><path d="M 635,213 Z" fill="#0057b8" /><path d="M 683,212 Z" fill="#0057b8" /><path d="M 653,212 L 652,213 L 644,213 L 643,214 L 638,214 L 637,215 L 634,215 L 633,216 L 630,216 L 629,217 L 627,217 L 626,218 L 624,218 L 623,219 L 621,219 L 620,220 L 619,220 L 618,221 L 616,221 L 615,222 L 614,222 L 613,223 L 612,223 L 611,224 L 610,224 L 608,226 L 607,226 L 606,227 L 605,227 L 604,228 L 603,228 L 601,230 L 600,230 L 597,233 L 596,233 L 593,236 L 592,236 L 577,251 L 577,252 L 574,255 L 574,256 L 573,257 L 572,256 L 573,257 L 571,259 L 570,258 L 571,259 L 571,260 L 570,261 L 570,262 L 568,264 L 568,265 L 566,267 L 566,269 L 564,271 L 563,270 L 564,271 L 564,272 L 563,273 L 563,275 L 562,276 L 562,277 L 561,278 L 561,280 L 560,281 L 560,282 L 559,283 L 559,285 L 558,286 L 558,288 L 556,290 L 555,289 L 556,290 L 555,291 L 556,290 L 557,291 L 557,293 L 556,294 L 555,293 L 556,294 L 556,297 L 555,298 L 555,303 L 554,304 L 554,317 L 553,318 L 553,319 L 554,320 L 554,333 L 555,334 L 555,340 L 556,341 L 556,344 L 557,345 L 557,348 L 558,349 L 558,352 L 559,353 L 559,355 L 560,356 L 560,358 L 561,359 L 561,361 L 562,362 L 562,363 L 563,364 L 563,365 L 564,366 L 564,368 L 566,370 L 566,371 L 567,372 L 567,373 L 569,375 L 569,376 L 570,377 L 570,378 L 573,381 L 573,382 L 575,384 L 575,385 L 580,390 L 580,391 L 579,392 L 580,391 L 583,394 L 582,395 L 583,394 L 588,399 L 589,399 L 593,403 L 594,403 L 597,406 L 597,408 L 596,409 L 597,410 L 597,430 L 596,431 L 597,432 L 597,438 L 596,439 L 597,440 L 596,441 L 597,442 L 597,443 L 596,444 L 597,445 L 597,452 L 596,453 L 597,454 L 597,481 L 596,482 L 597,483 L 597,485 L 596,486 L 597,487 L 596,488 L 597,489 L 597,490 L 596,491 L 597,492 L 597,496 L 596,497 L 597,498 L 596,499 L 596,509 L 595,510 L 595,514 L 594,515 L 594,518 L 593,519 L 593,522 L 592,523 L 592,526 L 591,527 L 591,528 L 590,529 L 590,531 L 589,532 L 589,533 L 588,534 L 588,536 L 587,537 L 587,538 L 586,539 L 586,540 L 585,541 L 585,542 L 584,543 L 584,544 L 583,545 L 583,546 L 582,547 L 581,546 L 582,547 L 582,548 L 580,550 L 580,551 L 579,552 L 579,553 L 578,554 L 577,553 L 578,554 L 576,556 L 576,557 L 573,560 L 573,561 L 572,562 L 570,560 L 572,562 L 568,566 L 568,567 L 561,574 L 560,574 L 554,580 L 552,580 L 552,581 L 550,583 L 549,583 L 547,585 L 546,585 L 544,587 L 542,587 L 542,588 L 541,589 L 540,589 L 539,590 L 537,590 L 535,592 L 534,592 L 533,593 L 532,593 L 531,594 L 530,594 L 529,595 L 527,595 L 526,596 L 525,596 L 524,597 L 523,597 L 522,598 L 519,598 L 518,599 L 516,599 L 515,600 L 513,600 L 512,601 L 509,601 L 508,602 L 503,602 L 502,603 L 498,603 L 496,601 L 496,600 L 496,601 L 497,602 L 496,603 L 495,603 L 494,604 L 473,604 L 472,603 L 465,603 L 464,602 L 460,602 L 459,601 L 457,601 L 456,600 L 452,600 L 451,599 L 449,599 L 448,598 L 447,598 L 446,597 L 447,596 L 446,597 L 443,597 L 442,596 L 441,596 L 440,595 L 438,595 L 437,594 L 437,593 L 434,593 L 433,592 L 432,592 L 431,591 L 430,591 L 429,590 L 428,590 L 426,588 L 425,588 L 423,586 L 422,586 L 420,584 L 419,584 L 417,582 L 416,582 L 414,580 L 415,579 L 414,580 L 413,579 L 412,579 L 402,569 L 401,569 L 400,568 L 400,567 L 394,561 L 394,560 L 391,557 L 391,556 L 389,554 L 389,553 L 387,551 L 387,550 L 385,548 L 385,547 L 384,546 L 384,545 L 383,544 L 383,543 L 382,542 L 382,541 L 381,540 L 381,539 L 380,538 L 380,537 L 381,536 L 382,537 L 381,536 L 380,537 L 379,536 L 379,534 L 378,533 L 378,532 L 377,531 L 377,529 L 376,528 L 376,526 L 375,525 L 375,523 L 374,522 L 374,519 L 373,518 L 373,515 L 372,514 L 372,512 L 371,511 L 371,509 L 370,508 L 370,507 L 369,506 L 370,505 L 369,505 L 367,503 L 367,502 L 365,500 L 366,499 L 365,500 L 363,498 L 363,497 L 362,497 L 359,494 L 360,493 L 359,494 L 358,494 L 357,493 L 359,491 L 357,493 L 356,493 L 355,492 L 355,491 L 352,491 L 351,490 L 348,490 L 347,489 L 343,489 L 342,488 L 341,489 L 280,489 L 279,488 L 278,489 L 247,489 L 246,488 L 245,489 L 218,489 L 217,490 L 216,489 L 218,491 L 218,700 L 219,700 L 220,699 L 230,699 L 231,700 L 232,699 L 245,699 L 246,700 L 247,699 L 263,699 L 264,700 L 265,699 L 283,699 L 284,700 L 285,699 L 334,699 L 335,700 L 336,699 L 337,700 L 338,699 L 342,699 L 343,700 L 344,700 L 346,702 L 347,702 L 349,704 L 350,704 L 352,706 L 353,706 L 355,708 L 356,708 L 358,710 L 357,711 L 358,710 L 359,711 L 361,711 L 363,713 L 364,713 L 365,714 L 366,714 L 367,715 L 368,715 L 369,716 L 368,717 L 369,716 L 370,716 L 371,717 L 372,717 L 374,719 L 375,719 L 376,720 L 377,720 L 378,721 L 379,721 L 380,722 L 381,722 L 382,723 L 383,723 L 384,724 L 386,724 L 387,725 L 388,725 L 389,726 L 390,726 L 391,727 L 392,727 L 393,728 L 396,728 L 397,729 L 398,729 L 399,730 L 401,730 L 402,731 L 404,731 L 405,732 L 406,732 L 407,733 L 408,733 L 409,734 L 408,735 L 409,734 L 413,734 L 414,735 L 416,735 L 417,736 L 419,736 L 420,737 L 423,737 L 424,738 L 427,738 L 428,739 L 432,739 L 433,740 L 437,740 L 438,741 L 442,741 L 443,742 L 449,742 L 450,743 L 458,743 L 459,744 L 472,744 L 473,745 L 489,745 L 490,744 L 504,744 L 505,743 L 512,743 L 513,742 L 519,742 L 520,741 L 524,741 L 525,740 L 530,740 L 531,739 L 533,739 L 534,738 L 538,738 L 539,737 L 541,737 L 542,736 L 545,736 L 546,735 L 549,735 L 550,734 L 552,734 L 553,733 L 554,733 L 555,732 L 558,732 L 559,733 L 558,734 L 559,733 L 558,732 L 559,731 L 560,731 L 561,730 L 563,730 L 564,729 L 565,729 L 566,728 L 568,728 L 569,727 L 571,727 L 572,726 L 573,726 L 574,725 L 575,725 L 576,724 L 577,724 L 578,723 L 579,723 L 580,722 L 581,722 L 582,721 L 583,721 L 584,720 L 586,720 L 587,719 L 588,719 L 590,717 L 591,717 L 592,716 L 593,716 L 594,715 L 595,715 L 596,714 L 597,714 L 599,712 L 600,712 L 601,711 L 602,711 L 603,710 L 604,710 L 606,708 L 607,708 L 609,706 L 610,706 L 611,707 L 610,706 L 612,704 L 613,704 L 615,702 L 616,702 L 619,699 L 620,699 L 621,698 L 622,699 L 623,698 L 623,697 L 626,694 L 627,694 L 632,689 L 633,689 L 638,684 L 639,684 L 655,668 L 657,670 L 655,668 L 661,662 L 661,661 L 667,655 L 668,656 L 668,657 L 668,656 L 667,655 L 667,654 L 671,650 L 671,649 L 674,646 L 674,645 L 677,642 L 677,641 L 680,638 L 680,637 L 682,635 L 682,634 L 684,632 L 685,633 L 684,632 L 684,631 L 685,630 L 685,629 L 687,627 L 687,626 L 688,625 L 688,624 L 690,622 L 690,621 L 692,619 L 692,617 L 693,616 L 693,615 L 695,613 L 695,612 L 696,611 L 696,610 L 697,609 L 697,608 L 698,607 L 698,606 L 699,605 L 699,603 L 700,602 L 700,601 L 701,600 L 701,599 L 702,598 L 702,597 L 703,596 L 703,595 L 704,594 L 704,592 L 705,591 L 705,589 L 706,588 L 706,587 L 707,586 L 707,584 L 708,583 L 708,581 L 709,580 L 709,578 L 710,577 L 710,575 L 711,574 L 711,572 L 712,571 L 712,569 L 714,567 L 715,567 L 715,566 L 714,567 L 713,566 L 713,565 L 714,564 L 714,561 L 715,560 L 715,556 L 716,555 L 716,552 L 717,551 L 717,547 L 718,546 L 718,541 L 719,540 L 719,536 L 720,535 L 720,534 L 719,533 L 720,532 L 720,525 L 721,524 L 721,435 L 722,434 L 721,433 L 721,406 L 722,405 L 723,405 L 726,402 L 727,402 L 734,395 L 735,395 L 738,392 L 738,391 L 744,385 L 744,384 L 747,381 L 748,382 L 747,381 L 747,380 L 751,376 L 751,374 L 752,373 L 752,372 L 753,371 L 753,370 L 754,369 L 754,368 L 756,366 L 756,364 L 757,363 L 757,362 L 758,361 L 758,360 L 760,358 L 759,357 L 760,356 L 760,354 L 761,353 L 761,351 L 762,350 L 762,347 L 763,346 L 763,343 L 764,342 L 764,340 L 765,339 L 764,338 L 764,337 L 765,336 L 765,332 L 766,331 L 765,330 L 765,325 L 766,324 L 766,315 L 765,314 L 765,305 L 764,304 L 764,298 L 763,297 L 763,294 L 762,293 L 762,289 L 761,288 L 761,286 L 760,285 L 760,284 L 759,283 L 759,281 L 758,280 L 758,278 L 757,277 L 757,275 L 756,274 L 756,273 L 755,272 L 755,271 L 754,270 L 754,269 L 752,267 L 752,266 L 751,265 L 751,264 L 750,263 L 750,262 L 751,261 L 750,262 L 748,260 L 748,259 L 746,257 L 746,256 L 747,255 L 748,256 L 747,255 L 746,256 L 744,254 L 744,253 L 739,248 L 739,247 L 736,244 L 737,243 L 736,244 L 733,241 L 734,240 L 733,241 L 732,240 L 731,240 L 725,234 L 724,234 L 721,231 L 720,231 L 718,229 L 717,229 L 715,227 L 714,227 L 713,226 L 712,226 L 710,224 L 708,224 L 707,223 L 706,223 L 705,222 L 704,222 L 703,221 L 702,221 L 701,220 L 700,220 L 699,219 L 697,219 L 696,218 L 694,218 L 693,217 L 691,217 L 690,216 L 687,216 L 686,215 L 683,215 L 682,214 L 677,214 L 676,213 L 666,213 L 665,212 Z" fill="#0057b8" /><path d="M 677,211 Z" fill="#0057b8" /><path d="M 645,211 Z" fill="#0057b8" /><path d="M 661,210 Z" fill="#0057b8" /><path d="M 650,210 Z" fill="#0057b8" /><path d="M 647,210 Z" fill="#0057b8" /><path d="M 566,35 Z" fill="#0057b8" /></svg>