<svg id="Warstwa_1" data-name="Warstwa 1" xmlns="http://www.w3.org/2000/svg" viewBox="0 0 150 19.89"><defs><style>.cls-1{fill:#FFFFFF;fill-rule:evenodd;}</style></defs><title>logo</title><path class="cls-1" d="M133.11,1.15h14.51V3.76c-3.23,0-6.46,0-9.73,0v3h7.74V9.35c-2.57,0-5.14,0-7.74,0v5.23h-4.79V1.15ZM112.88,7.81v0a5.54,5.54,0,0,1,2.65-5A10.71,10.71,0,0,1,121.67,1a10.11,10.11,0,0,1,4.71,1,7.28,7.28,0,0,1,3,2.69,6.12,6.12,0,0,1,.93,3.21V8a6.48,6.48,0,0,1-.58,2.81A5.7,5.7,0,0,1,127.9,13a10,10,0,0,1-6.3,1.74,13.17,13.17,0,0,1-1.79-.12,11.51,11.51,0,0,1-1.87-.32,7.72,7.72,0,0,1-3.42-2,5.77,5.77,0,0,1-1.17-1.9,6.74,6.74,0,0,1-.47-2.58Zm5,.16a4.75,4.75,0,0,0,1,3.36,4.08,4.08,0,0,0,5.38,0,5.22,5.22,0,0,0,1-3.59,4.39,4.39,0,0,0-1-3.19,3.64,3.64,0,0,0-2.71-1,3.48,3.48,0,0,0-2.62,1,4.75,4.75,0,0,0-1,3.38ZM94.09,14.7c0-4.48,0-9,0-13.47h4.83V6.5h6.34c0-1.74,0-3.53,0-5.27H110V14.7h-4.75V9.19H98.87V14.7ZM74.71,1.31H80c2.3,2.65,4.59,5.27,6.85,7.93h0V1.31h3.77V14.74H86.5c-2.61-3-5.25-6-7.9-9h-.08v9H74.75c0-4.44,0-8.92,0-13.43Zm-3.23,0H66.77c0,4.52,0,9,0,13.47h4.71c0-4.52,0-9,0-13.47ZM38.56,4H33.42c0-.87,0-1.74,0-2.58,5,0,10,0,15,0V3.92C46.73,4,45,4,43.31,4c0,3.65,0,7.21,0,10.82H38.6c0-3.61,0-7.17,0-10.82ZM63.74,14.82c-4.2,0-8.44,0-12.68,0V1.39c4.24,0,8.44,0,12.65,0V3.76H55.6V6.86c2.72,0,5.41,0,8.09,0V9.15c-2.68,0-5.37,0-8.09,0v3.25c2.72,0,5.41,0,8.13,0v2.42ZM14,4.16A6,6,0,0,1,16.07,2a12.09,12.09,0,0,1,7-2,11.83,11.83,0,0,1,5.37,1.15,6.05,6.05,0,0,1,3,2.5c.08.08.12.24.19.32-3,0-6,0-9,0,3.23,2.5,6.42,5,9.61,7.53a6.49,6.49,0,0,1-1.95,2.22,11.91,11.91,0,0,1-7.24,2A12,12,0,0,1,21,15.61a10.14,10.14,0,0,1-2.1-.36,8,8,0,0,1-3.93-2.34,5.94,5.94,0,0,1-1.28-2c2.88,0,5.76,0,8.64,0C19.53,8.64,16.77,6.42,14,4.16ZM0,4C3.93,4,7.86,4,11.75,4,14,5.83,16.23,7.65,18.44,9.51H2.57A15.81,15.81,0,0,1,0,4Zm11.83,6.86c2.57,7,15.14,8.6,20.66,2.66a5.39,5.39,0,0,0,.7-1.19c3.19,2.54,6.38,5,9.53,7.57l-19.11,0a24.27,24.27,0,0,1-20.08-9Zm135.64,3h.43v-.71c.23.24.43.48.62.71a2.36,2.36,0,0,1,.51,0c-.19-.2-.39-.44-.58-.67a.59.59,0,0,0,.54-.59.64.64,0,0,0-.19-.44,1,1,0,0,0-.62-.16h-.7v1.9Zm.43-1v-.51h.27c.23,0,.39.12.39.28s-.16.24-.39.24Zm.27-1.55a1.75,1.75,0,0,0-1.83,1.62,1.68,1.68,0,0,0,1.83,1.62A1.75,1.75,0,0,0,150,13a1.73,1.73,0,0,0-1.83-1.66Zm0,.16a1.54,1.54,0,0,1,1.6,1.51,1.56,1.56,0,0,1-1.6,1.43,1.51,1.51,0,0,1-1.6-1.47,1.54,1.54,0,0,1,1.6-1.47Z"/></svg>